<svg width="25" height="28" viewBox="0 0 25 28" fill="none" xmlns="http://www.w3.org/2000/svg">
<g filter="url(#filter0_d_459_3443)">
<circle cx="12.5078" cy="12" r="7.5" stroke="#828282"/>
<path d="M15.0078 12C15.0078 14.1651 14.6779 16.1029 14.161 17.4813C13.9018 18.1723 13.6053 18.6969 13.3014 19.0396C12.997 19.383 12.7277 19.5 12.5078 19.5C12.2879 19.5 12.0186 19.383 11.7142 19.0396C11.4103 18.6969 11.1138 18.1723 10.8547 17.4813C10.3377 16.1029 10.0078 14.1651 10.0078 12C10.0078 9.83494 10.3377 7.89713 10.8547 6.51871C11.1138 5.82765 11.4103 5.30314 11.7142 4.96038C12.0186 4.61704 12.2879 4.5 12.5078 4.5C12.7277 4.5 12.997 4.61704 13.3014 4.96038C13.6053 5.30314 13.9018 5.82765 14.161 6.51871C14.6779 7.89713 15.0078 9.83494 15.0078 12Z" stroke="#828282"/>
<path d="M5.00781 12L20.0078 12" stroke="#828282" stroke-linecap="round"/>
</g>
<defs>
<filter id="filter0_d_459_3443" x="-3.49219" y="0" width="32" height="32" filterUnits="userSpaceOnUse" color-interpolation-filters="sRGB">
<feFlood flood-opacity="0" result="BackgroundImageFix"/>
<feColorMatrix in="SourceAlpha" type="matrix" values="0 0 0 0 0 0 0 0 0 0 0 0 0 0 0 0 0 0 127 0" result="hardAlpha"/>
<feOffset dy="4"/>
<feGaussianBlur stdDeviation="2"/>
<feComposite in2="hardAlpha" operator="out"/>
<feColorMatrix type="matrix" values="0 0 0 0 0 0 0 0 0 0 0 0 0 0 0 0 0 0 0.25 0"/>
<feBlend mode="normal" in2="BackgroundImageFix" result="effect1_dropShadow_459_3443"/>
<feBlend mode="normal" in="SourceGraphic" in2="effect1_dropShadow_459_3443" result="shape"/>
</filter>
</defs>
</svg>
