<svg width="25" height="24" viewBox="0 0 25 24" fill="none" xmlns="http://www.w3.org/2000/svg">
<circle cx="12.5078" cy="8" r="2.5" stroke="#828282" stroke-linecap="round"/>
<path d="M14.2758 6.5C14.4735 6.15743 14.7685 5.88121 15.1232 5.70625C15.478 5.5313 15.8767 5.46548 16.2689 5.51711C16.661 5.56874 17.0291 5.73551 17.3265 5.99632C17.6239 6.25713 17.8373 6.60028 17.9397 6.98236C18.042 7.36445 18.0288 7.76831 17.9017 8.14288C17.7745 8.51745 17.5392 8.8459 17.2253 9.08671C16.9115 9.32751 16.5333 9.46985 16.1386 9.49572C15.7439 9.52159 15.3504 9.42983 15.0078 9.23205" stroke="#828282"/>
<path d="M10.7399 6.5C10.5421 6.15743 10.2472 5.88121 9.89239 5.70625C9.53762 5.5313 9.13894 5.46548 8.74676 5.51711C8.35458 5.56874 7.98652 5.73551 7.68912 5.99632C7.39172 6.25713 7.17834 6.60028 7.07596 6.98236C6.97358 7.36445 6.9868 7.76831 7.11395 8.14288C7.2411 8.51745 7.47647 8.8459 7.79029 9.08671C8.10411 9.32751 8.48229 9.46985 8.87701 9.49572C9.27172 9.52159 9.66525 9.42983 10.0078 9.23205" stroke="#828282"/>
<path d="M12.5078 12.5C16.5881 12.5 17.6413 15.8022 17.9132 17.507C18.0002 18.0524 17.5601 18.5 17.0078 18.5H8.00781C7.45553 18.5 7.01544 18.0524 7.10242 17.507C7.37431 15.8022 8.42757 12.5 12.5078 12.5Z" stroke="#828282" stroke-linecap="round"/>
<path d="M19.8032 15.4162L19.3182 15.5377L19.8032 15.4162ZM13.5938 12.5859L13.2245 12.2488L12.6041 12.9283L13.5118 13.0791L13.5938 12.5859ZM17.688 16.5L17.2077 16.639L17.3121 17H17.688V16.5ZM16.0067 12C17.0344 12 17.7562 12.5027 18.285 13.2069C18.8244 13.9253 19.1411 14.8306 19.3182 15.5377L20.2882 15.2948C20.0971 14.5315 19.7395 13.4787 19.0846 12.6065C18.4192 11.7203 17.4268 11 16.0067 11V12ZM13.963 12.923C14.4634 12.375 15.1173 12 16.0067 12V11C14.7894 11 13.8802 11.5306 13.2245 12.2488L13.963 12.923ZM13.5118 13.0791C15.8123 13.4614 16.7856 15.1801 17.2077 16.639L18.1683 16.361C17.6971 14.7326 16.5256 12.5663 13.6757 12.0927L13.5118 13.0791ZM18.9016 16H17.688V17H18.9016V16ZM19.3182 15.5377C19.372 15.7526 19.2142 16 18.9016 16V17C19.7724 17 20.5218 16.2277 20.2882 15.2948L19.3182 15.5377Z" fill="#828282"/>
<path d="M11.4198 12.5859L11.5018 13.0791L12.4095 12.9283L11.7891 12.2488L11.4198 12.5859ZM5.21039 15.4162L5.69541 15.5377L5.21039 15.4162ZM7.32564 16.5V17H7.70149L7.80594 16.639L7.32564 16.5ZM9.00695 12C9.89627 12 10.5502 12.375 11.0506 12.923L11.7891 12.2488C11.1334 11.5306 10.2242 11 9.00695 11V12ZM5.69541 15.5377C5.8725 14.8306 6.18924 13.9253 6.72862 13.2069C7.25743 12.5027 7.97922 12 9.00695 12V11C7.58676 11 6.59438 11.7203 5.92895 12.6065C5.27409 13.4787 4.91651 14.5315 4.72537 15.2948L5.69541 15.5377ZM6.11193 16C5.79943 16 5.6416 15.7526 5.69541 15.5377L4.72537 15.2948C4.49173 16.2277 5.2412 17 6.11193 17V16ZM7.32564 16H6.11193V17H7.32564V16ZM7.80594 16.639C8.228 15.1801 9.20131 13.4614 11.5018 13.0791L11.3379 12.0927C8.48797 12.5663 7.31646 14.7326 6.84533 16.361L7.80594 16.639Z" fill="#828282"/>
</svg>
