<svg width="24" height="24" viewBox="0 0 24 24" fill="none" xmlns="http://www.w3.org/2000/svg">
<path d="M5.00781 12.7596C5.00781 11.4019 5.00781 10.723 5.28227 10.1262C5.55674 9.52949 6.07218 9.08769 7.10306 8.20407L8.10306 7.34693C9.96638 5.7498 10.898 4.95123 12.0078 4.95123C13.1176 4.95123 14.0492 5.7498 15.9126 7.34693L16.9126 8.20407C17.9434 9.08769 18.4589 9.52949 18.7334 10.1262C19.0078 10.723 19.0078 11.4019 19.0078 12.7596V17C19.0078 18.8856 19.0078 19.8284 18.422 20.4142C17.8362 21 16.8934 21 15.0078 21H9.00781C7.12219 21 6.17939 21 5.5936 20.4142C5.00781 19.8284 5.00781 18.8856 5.00781 17V12.7596Z" stroke="#828282"/>
<path d="M14.5078 21V16C14.5078 15.4477 14.0601 15 13.5078 15H10.5078C9.95553 15 9.50781 15.4477 9.50781 16V21" stroke="#828282" stroke-linecap="round" stroke-linejoin="round"/>
</svg>
