<svg width="104" height="36" viewBox="0 0 104 36" fill="none" xmlns="http://www.w3.org/2000/svg">
<path d="M101.412 11.4949C101.486 12.0602 101.304 12.6988 100.782 13.422C100.257 14.1483 99.4163 14.9203 98.2586 15.7202C95.9446 17.3189 92.4703 18.9575 88.0705 20.5339C79.2798 23.6834 66.9132 26.543 53.0583 28.3561C39.2034 30.1692 26.5173 30.5881 17.2123 29.8067C12.555 29.4156 8.77604 28.7262 6.12854 27.7768C4.80397 27.3018 3.7927 26.7721 3.09906 26.2053C2.40829 25.6408 2.06802 25.0705 1.99404 24.5052C1.92005 23.9398 2.10213 23.3013 2.62438 22.578C3.14881 21.8518 3.98973 21.0798 5.14746 20.2799C7.4615 18.6812 10.9358 17.0426 15.3356 15.4662C24.1263 12.3167 36.4929 9.45711 50.3478 7.644C64.2027 5.83088 76.8887 5.41196 86.1938 6.19336C90.8511 6.58446 94.63 7.27387 97.2775 8.22331C98.6021 8.69832 99.6134 9.22798 100.307 9.7948C100.998 10.3593 101.338 10.9295 101.412 11.4949Z" stroke="#FFE194" stroke-width="1.13938"/>
<path d="M19.5484 18.3023V13.0247C19.5484 11.1105 20.779 9.74324 23.3768 9.74324C25.4823 9.74324 26.6855 10.6456 27.0684 12.0129H28.1622V9.87996H30.8967V21.447H28.1622V19.0543H27.1367C26.8359 20.5583 25.6191 21.5837 23.3768 21.5837C20.779 21.5837 19.5484 20.2164 19.5484 18.3023ZM23.3768 10.1808C23.3768 14.2005 21.4899 15.6088 19.8356 15.6771C21.4899 15.7455 23.3768 17.1401 23.3768 21.1462C23.3768 17.1401 25.2499 15.7318 26.9043 15.6635C25.2499 15.5951 23.3768 14.2005 23.3768 10.1808ZM27.2051 14.2005V16.8667H28.1622V14.2005H27.2051ZM32.0546 11.8898V10.044H33.5176V9.26469H36.3888V10.044H37.8518V11.8898H32.0546ZM38.2619 16.6342V9.87996H40.641V12.0266H41.2289V9.87996H43.6079V16.6342H41.2289V14.3509H40.641V16.6342H38.2619ZM37.8518 14.4056C37.8518 15.9506 36.9494 16.6342 35.5958 16.6342H34.3106C32.957 16.6342 32.0546 15.9506 32.0546 14.4056C32.0546 12.8606 32.957 12.177 34.3106 12.177H35.5958C36.9494 12.177 37.8518 12.8606 37.8518 14.4056ZM34.9532 12.3957C34.9122 13.4895 34.2969 14.3646 32.6972 14.4056C34.2969 14.4466 34.9122 15.3353 34.9532 16.4291C34.9805 15.3353 35.5958 14.4466 37.1955 14.4056C35.5958 14.3646 34.9805 13.4895 34.9532 12.3957ZM43.6763 19.2457C43.6763 20.7497 42.6919 21.447 41.0512 21.447H34.8164C33.1757 21.447 32.1913 20.7497 32.1913 19.2457C32.1913 17.7417 33.1757 17.0444 34.8164 17.0444H41.0512C42.6919 17.0444 43.6763 17.7417 43.6763 19.2457ZM37.9338 17.3042C37.8928 18.5757 37.0041 19.2183 33.4765 19.2457C37.0041 19.2867 37.8928 19.9156 37.9338 21.1872C37.9748 19.9156 38.8499 19.2867 42.3911 19.2457C38.8499 19.2183 37.9748 18.5757 37.9338 17.3042ZM44.9709 14.6107V13.0247C44.9709 11.1105 46.2698 9.74324 48.8676 9.74324C51.4654 9.74324 52.7643 11.1105 52.7643 13.0247V14.6107C52.7643 16.5248 51.4654 17.8921 48.8676 17.8921C46.2698 17.8921 44.9709 16.5248 44.9709 14.6107ZM53.5846 21.447V9.87996H56.3192V21.447H53.5846ZM48.8676 10.4679C48.7992 12.341 47.514 13.763 45.9417 13.8313C47.514 13.8997 48.7992 15.2943 48.8676 17.1675C48.9223 15.2943 50.2075 13.886 51.7935 13.8177C50.2075 13.7493 48.9223 12.341 48.8676 10.4679ZM44.8342 21.447V19.3277H53.0377V21.447H44.8342ZM60.8066 18.3023V13.0247C60.8066 11.1105 62.0371 9.74324 64.6349 9.74324C67.2327 9.74324 68.4632 11.1105 68.4632 13.0247V18.3023C68.4632 20.2164 67.2327 21.5837 64.6349 21.5837C62.0371 21.5837 60.8066 20.2164 60.8066 18.3023ZM69.4203 21.447V9.87996H72.1548V21.447H69.4203ZM64.6349 10.1808C64.6349 14.2005 62.7481 15.6088 61.0937 15.6771C62.7481 15.7455 64.6349 17.1401 64.6349 21.1462C64.6349 17.1401 66.508 15.7318 68.1624 15.6635C66.508 15.5951 64.6349 14.2005 64.6349 10.1808ZM84.9344 12.8059C84.9344 14.5833 83.8816 15.7318 81.9675 15.7318H76.4164C74.5022 15.7318 73.4494 14.5833 73.4494 12.8059C73.4494 11.0285 74.5022 9.87996 76.4164 9.87996H81.9675C83.8816 9.87996 84.9344 11.0285 84.9344 12.8059ZM79.1919 15.5951C79.1919 14.2552 80.942 12.8743 84.3602 12.8059C80.942 12.7375 79.1919 11.3703 79.1919 10.0167C79.1919 11.3703 77.4282 12.7375 74.01 12.8059C77.4282 12.8743 79.1919 14.2552 79.1919 15.5951ZM73.5178 18.48V16.3608H84.8661V18.48H83.0886V21.447H80.3541V18.48H78.0298V21.447H75.2952V18.48H73.5178Z" fill="#21B69C"/>
<circle cx="10.0629" cy="18.1605" r="4.36763" fill="#FFE194"/>
</svg>
